<?xml version="1.0" standalone="no"?>
<!DOCTYPE svg PUBLIC "-//W3C//DTD SVG 20010904//EN"
 "http://www.w3.org/TR/2001/REC-SVG-20010904/DTD/svg10.dtd">
<svg version="1.0" xmlns="http://www.w3.org/2000/svg"
 width="626.000000pt" height="626.000000pt" viewBox="0 0 626.000000 626.000000"
 preserveAspectRatio="xMidYMid meet">

<g transform="translate(0.000000,626.000000) scale(0.100000,-0.100000)"
fill="#000000" stroke="none">
<path d="M0 3130 l0 -3130 3130 0 3130 0 0 3130 0 3130 -3130 0 -3130 0 0
-3130z m1677 1023 c23 -37 32 -58 24 -61 -7 -2 -35 -20 -64 -39 l-52 -35 -37
44 c-21 23 -38 48 -38 55 0 17 50 74 74 83 42 17 56 10 93 -47z m2823 42 c27
-14 70 -64 70 -82 0 -4 -17 -28 -38 -51 l-38 -44 -54 36 c-30 20 -60 36 -68
36 -7 0 4 25 28 60 43 64 54 69 100 45z"/>
</g>
</svg>
